<svg id="Capa_1" data-name="Capa 1" xmlns="http://www.w3.org/2000/svg" viewBox="0 0 813.5 252.16"><defs><style>.cls-1,.cls-3,.cls-4{fill:#fff;}.cls-1{stroke:#fff;stroke-miterlimit:10;}.cls-2,.cls-3{isolation:isolate;}.cls-3{font-size:45.5px;}.cls-3,.cls-4{font-family:Arial;font-weight:700;}.cls-4{font-size:48.9px;}.cls-5{white-space:pre;}.cls-6{letter-spacing:-1px;}</style></defs><title>SICAN</title><path class="cls-1" d="M59.83,18.37c33.2-9.8,77.4-10.9,110.1-8.9A123.28,123.28,0,0,0,59.83,18.37Z" transform="translate(0 0)"/><path class="cls-1" d="M18.63,59.37a123.31,123.31,0,0,0,29.9,162C246.33,193.77,43.43,108,18.63,59.37Z" transform="translate(0 0)"/><path class="cls-1" d="M114.63,109.57a131.52,131.52,0,0,0,15.2,13.7l92.7,70.4a5.72,5.72,0,0,1,.8.7,123.23,123.23,0,0,0-25-170.8c-2.2-1.6-4.4-3.2-6.6-4.7C75.53,27.17,71.33,63.47,114.63,109.57Z" transform="translate(0 0)"/><path class="cls-1" d="M181.63,232.67c-31.4,8.8-72.4,9-103.2,5.8A124,124,0,0,0,181.63,232.67Z" transform="translate(0 0)"/><path class="cls-1" d="M191.83,21l8.8-.6c31.2-1.7,8.4-8.5-30.6-10.9A116.9,116.9,0,0,1,191.83,21Z" transform="translate(0 0)"/><path class="cls-1" d="M223.43,196.37a24.26,24.26,0,0,0-1.4,2,122.91,122.91,0,0,1-40.3,34.3c19.3-5.4,35-14.2,42.4-27.5A7,7,0,0,0,223.43,196.37Z" transform="translate(0 0)"/><path class="cls-1" d="M49.23,221.87c-0.2-.2-0.4-0.3-0.6-0.5-0.3,0-.6.1-0.9,0.1-29.4,4.1-7,13,30.8,16.9A120.09,120.09,0,0,1,49.23,221.87Z" transform="translate(0 0)"/><path class="cls-1" d="M59.83,18.37C42.43,23.47,28,31,19.93,41.67h0l-0.1.1,0.1,0.1c-4.7,5-4.6,10.9-1.3,17.6a115.24,115.24,0,0,1,7-10.2A123.39,123.39,0,0,1,59.83,18.37Z" transform="translate(0 0)"/><path class="cls-1" d="M306.33,19.47v162.6h-35.2V19.47h35.2Z" transform="translate(0 0)"/><path class="cls-1" d="M483.13,131.77c-6.4,30.4-29.3,52.6-70.1,52.6-51.7,0-76-36.6-76-82.8,0-44.6,25.3-84.5,77.6-84.5,43.4,0,64.4,25.3,68.4,52.6h-35.2c-3.5-12.7-12.3-25.3-34.5-25.3-29,0-40.1,26.2-40.1,55.9,0,27.4,9.7,56.4,41.1,56.4,23.1,0,30.2-15.3,33.3-25h35.5v0.1h0Z" transform="translate(0 0)"/><path class="cls-1" d="M540.73,144.57l-12.5,37.5H493.5l55.2-162.6h44.1l57.8,162.6H613.5L600,144.57H540.73Zm51.9-28.8c-11.6-34.5-18.9-56.4-22.9-71H569.5c-4,16-12,41.5-21.2,71h44.33Z" transform="translate(0 0)"/><path class="cls-1" d="M671.43,182.07V19.47h43.7c20.3,36.3,57.8,102.4,65.4,120.1H781c-1.9-17-1.9-45.3-1.9-72V19.47H811v162.6h-41.3c-17.5-31.9-59-107.4-67.3-126.3h-0.5c1.2,14.2,1.7,47.7,1.7,76.7v49.6h-32.2Z" transform="translate(0 0)"/><g class="cls-2"><text class="cls-3" transform="translate(402.63 235.03)"> </text></g><text class="cls-4" transform="translate(270.13 233.67)">CONTRO<tspan x="211.88" y="0">L</tspan><tspan class="cls-5" x="240.87" y="0"> DE</tspan><tspan class="cls-6" x="322.39" y="0"> </tspan><tspan x="334.16" y="0">ACCESO</tspan></text></svg>